# xmcd
#
# Track frame offsets:
#	150
#	12861
#	26392
#	42635
#	57715
#	72367
#	85961
#	97510
#	109178
#	122940
#	134695
#	143795
#	155818
#	165933
#	178983
#	193734
#	206935
#	218605
#
# Disc length: 3040 seconds
#
# Revision: 0
# Processed by: cddbd v1.5.2PL0 Copyright (c) Steve Scherf et al.
# Submitted via: audiograbber 1.83.01
#
DISCID=0e0bde12
DTITLE=Francis Lemarque - Anthologie Librairie Sonore 1949-59
DYEAR=2011
DGENRE=Chanson francaise
TTITLE0=Le petit cordonnier
TTITLE1=Bal, petit bal
TTITLE2=Cornet de frites
TTITLE3=Le cocher de fiacre
TTITLE4=Le tueur affame
TTITLE5=A Paris
TTITLE6=Au bois de Boulogne (Patins a roulettes)
TTITLE7=J'ai mis mes cliques
TTITLE8=Le clown
TTITLE9=Toi tu ne ressembles a personne
TTITLE10=Quand un soldat
TTITLE11=La grenouille
TTITLE12=Mon copain d'Pekin
TTITLE13=Un air de cristal
TTITLE14=Julot poil dans la main
TTITLE15=Seul un homme peut faire ca
TTITLE16=Matilda
TTITLE17=Paris se regarde
EXTD=
EXTT0=1953
EXTT1=1949
EXTT2=1949
EXTT3=1950
EXTT4=1949
EXTT5=1949
EXTT6=1951
EXTT7=1950
EXTT8=1951
EXTT9=1953
EXTT10=1953
EXTT11=1955
EXTT12=1955
EXTT13=1955
EXTT14=1955
EXTT15=1956
EXTT16=1956
EXTT17=1956
PLAYORDER=
